<mxfile host="app.diagrams.net" agent="Mozilla/5.0 (Macintosh; Intel Mac OS X 10_15_7) AppleWebKit/537.36 (KHTML, like Gecko) Chrome/131.0.0.0 Safari/537.36" version="26.0.16">
  <diagram name="Page-1" id="80d4a630-b321-0f5e-ff81-c5a36ef4752d">
    <mxGraphModel dx="1464" dy="741" grid="1" gridSize="10" guides="1" tooltips="1" connect="1" arrows="1" fold="1" page="1" pageScale="1" pageWidth="1100" pageHeight="850" background="none" math="0" shadow="0">
      <root>
        <mxCell id="0" />
        <mxCell id="1" parent="0" />
        <mxCell id="Ji7vmEFXZM4LwsUR5Uis-1" value="" style="ellipse;whiteSpace=wrap;html=1;aspect=fixed;" vertex="1" parent="1">
          <mxGeometry x="150" y="340" width="60" height="60" as="geometry" />
        </mxCell>
        <mxCell id="Ji7vmEFXZM4LwsUR5Uis-2" value="" style="ellipse;whiteSpace=wrap;html=1;aspect=fixed;" vertex="1" parent="1">
          <mxGeometry x="440" y="440" width="60" height="60" as="geometry" />
        </mxCell>
        <mxCell id="Ji7vmEFXZM4LwsUR5Uis-3" value="" style="ellipse;whiteSpace=wrap;html=1;aspect=fixed;" vertex="1" parent="1">
          <mxGeometry x="300" y="440" width="60" height="60" as="geometry" />
        </mxCell>
        <mxCell id="Ji7vmEFXZM4LwsUR5Uis-4" value="" style="ellipse;whiteSpace=wrap;html=1;aspect=fixed;" vertex="1" parent="1">
          <mxGeometry x="390" y="340" width="60" height="60" as="geometry" />
        </mxCell>
        <mxCell id="Ji7vmEFXZM4LwsUR5Uis-5" value="" style="ellipse;whiteSpace=wrap;html=1;aspect=fixed;" vertex="1" parent="1">
          <mxGeometry x="630" y="340" width="60" height="60" as="geometry" />
        </mxCell>
      </root>
    </mxGraphModel>
  </diagram>
</mxfile>
